<svg xmlns="http://www.w3.org/2000/svg" xmlns:xlink="http://www.w3.org/1999/xlink" version="1.1" id="Layer_1" x="0px" y="0px" style="enable-background:new 0 0 1000 1000;" xml:space="preserve" viewBox="155.8 438 688.3 123.9">
<style type="text/css">
	.st0{fill:#FFFFFF;}
	.st1{fill:url(#SVGID_1_);}
	.st2{fill:url(#SVGID_00000057856310655610432260000017927187333115604391_);}
	.st3{fill:url(#SVGID_00000125560401750945861200000001670091042782441652_);}
</style>
<g>
	<g>
		<g>
			<path class="st0" d="M829.4,446.8c-8.1,0-14.7,6.6-14.7,14.7c0,8.1,6.6,14.7,14.7,14.7c8.1,0,14.7-6.6,14.7-14.7     C844.1,453.4,837.5,446.8,829.4,446.8z M829.4,473c-6.3,0-11.5-5.1-11.5-11.5c0-6.3,5.1-11.5,11.5-11.5c6.3,0,11.5,5.1,11.5,11.5     C840.9,467.9,835.8,473,829.4,473z"/>
		</g>
		<g>
			<path class="st0" d="M832.4,467.7l-2-3.7h-4v3.7h-2.9v-12.3h6.4c3.3,0,5,1.5,5,4.4c0,1.7-0.8,3-2.1,3.6l2.4,4.2H832.4z      M826.5,461.8h3.4c1.5,0,2.3-0.7,2.3-2c0-1.3-0.8-2-2.3-2h-3.4V461.8z"/>
		</g>
	</g>
</g>
<g>
	<linearGradient id="SVGID_1_" gradientUnits="userSpaceOnUse" x1="62.4118" y1="499.7816" x2="423.6081" y2="499.7816">
		<stop offset="0" style="stop-color:#F32F56"/>
		<stop offset="0.2111" style="stop-color:#F32FAF"/>
		<stop offset="1" style="stop-color:#4A78EF"/>
	</linearGradient>
	<path class="st1" d="M225.3,491.9l1-0.9l-3.6-3.6c-0.8-0.8-0.9-1.8-0.5-2.7c0.4-0.8,1.1-1.4,2.1-1.4l5.5-0.4l5.4-0.3l2.1-1.9   l0.1-0.1l0.5-0.5c7.9-7.9,9.1-9.2,17-17.1c0.5-0.5,1-1.1,1.6-1.7c-0.6-0.6-1-1.2-1.6-1.7c-4.5-4.5-9-9-13.5-13.5   c-10.9-10.8-26.5-10.8-37.4,0c-17.7,17.6-28.7,28.7-46.4,46.4c-1.3,1.3-1.8,2.6-1.8,4.3c0,2.4,0,4.7,0,7.1v57.3   C179,538.3,202.1,515.2,225.3,491.9L225.3,491.9z"/>
	
		<linearGradient id="SVGID_00000043449162421593483660000008140419693933404304_" gradientUnits="userSpaceOnUse" x1="62.4118" y1="474.5254" x2="423.6081" y2="474.5254">
		<stop offset="0" style="stop-color:#F32F56"/>
		<stop offset="8.729935e-02" style="stop-color:#F32FAF"/>
		<stop offset="1" style="stop-color:#4A78EF"/>
	</linearGradient>
	<path style="fill:url(#SVGID_00000043449162421593483660000008140419693933404304_);" d="M405.4,463.1c-0.6-0.6-1-1.2-1.6-1.7   c-4.5-4.5-9-9-13.5-13.5c-10.9-10.8-26.5-10.8-37.4,0c-10.4,10.4-18,18-26,26l-0.3,12.1c0,2.1-2.5,3.2-4,1.7l-4.7-4.7   c-3,3-6.2,6.1-9.7,9.6l-16.1,16.6h66.3L405.4,463.1L405.4,463.1L405.4,463.1L405.4,463.1z"/>
	
		<linearGradient id="SVGID_00000034773589526871678060000008829572953529010836_" gradientUnits="userSpaceOnUse" x1="62.4118" y1="500.5534" x2="423.6081" y2="500.5534">
		<stop offset="0" style="stop-color:#F32F56"/>
		<stop offset="8.729935e-02" style="stop-color:#F32FAF"/>
		<stop offset="1" style="stop-color:#4A78EF"/>
	</linearGradient>
	<path style="fill:url(#SVGID_00000034773589526871678060000008829572953529010836_);" d="M320.2,513.5L320.2,513.5h-30.6h-6   c0,0,0,0,0,0c-0.6-0.3-1.1-0.8-1.3-2.1c12.5-12.5,21.5-21.8,31.8-32.2l-3.8-3.8c-1.5-1.5-0.4-4,1.7-4l10.5-0.7c2.5-2.6,5.2-5.2,8-8   c-1.2-1.3-1.5-1.6-2.1-2.2c-4.2-4.2-8.4-8.5-12.7-12.7c-11.4-11.4-26.7-11.3-38.2,0.1c-14.2,14.2-20.1,20.7-34.4,34.9c0,0,0,0,0,0   l0,0c-0.4,0.4-0.7,0.7-1.1,1.1c-0.1,0.1-0.2,0.2-0.2,0.2l0,0l-0.1,0.1l-2.5,2.5l-0.1,4.9l-0.2,6.5c0,0.7-0.3,1.4-0.8,1.8   c-0.3,0.2-0.6,0.4-1,0.5c0,0,0,0,0,0c0,0,0,0,0,0c-0.7,0.2-1.6,0-2.2-0.6l-4.4-4.4l-2,2c-6.4,6.4-12.8,12.8-19.2,19.2c0,0,0,0,0,0   l-47.6,45.2h68.5l-0.3-0.7c0,0,0,0,0,0c0.1,0.1,0.2,0.2,0.3,0.3c0,0,0,0,0,0c0,0.1,0,0.3,0,0.4h52.8h6.6h4.1h26.5h0.7   c1.5,0,2.8-1.2,2.8-2.8v-42.2C323.7,515,322.1,513.5,320.2,513.5z M276.7,517.1c0.7-0.7,1.4-1.2,2.3-0.8c0.9,0.4,1,1.2,1.1,2   c0,0.3,0,0.6,0,0.9c0,0.1,0,0.2,0,0.3v27.7h-33.7l18.8-18.8C269,524.7,272.8,520.9,276.7,517.1z"/>
</g>
<g>
	<g>
		<g>
			<path class="st0" d="M420,536.6c0.5,0,1,0,1.4,0.1c0.4,0.1,0.7,0.2,1,0.4c0.3,0.2,0.5,0.5,0.8,0.8c0.2,0.3,0.5,0.8,0.7,1.4     l7.5,17.3c0.1,0.2,0.3,0.3,0.5,0.3h0.4c0.2,0,0.4-0.1,0.5-0.3l7.5-17.3c0.2-0.6,0.5-1,0.7-1.4c0.2-0.3,0.5-0.6,0.8-0.8     c0.3-0.2,0.6-0.3,1-0.4c0.4-0.1,0.8-0.1,1.4-0.1h3.9c1.2,0,2.1,0.3,2.5,0.8c0.4,0.6,0.6,1.5,0.6,2.9V561c0,0.5-0.3,0.8-0.8,0.8     h-3.7c-0.5,0-0.8-0.3-0.8-0.8v-18.8c0-0.2-0.1-0.4-0.3-0.4h-0.3c-0.2,0-0.4,0.1-0.5,0.3l-7.3,16.1c-0.3,0.6-0.6,1.2-0.9,1.6     c-0.3,0.4-0.6,0.8-1,1.1c-0.3,0.3-0.7,0.5-1.2,0.6c-0.4,0.1-1,0.2-1.6,0.2h-1.7c-0.6,0-1.1-0.1-1.6-0.2c-0.4-0.1-0.8-0.3-1.2-0.6     c-0.3-0.3-0.7-0.7-1-1.1c-0.3-0.4-0.6-1-0.9-1.6l-7.3-16.1c-0.1-0.2-0.2-0.3-0.5-0.3h-0.3c-0.2,0-0.3,0.1-0.3,0.4V561     c0,0.5-0.3,0.8-0.8,0.8h-3.7c-0.6,0-0.8-0.3-0.8-0.8v-20.7c0-1.4,0.2-2.3,0.6-2.9c0.4-0.6,1.3-0.8,2.6-0.8H420z"/>
			<path class="st0" d="M486.3,536.6c0.9,0,1.7,0.2,2.3,0.6c0.6,0.4,1.2,1.1,1.8,2.2l11.9,21.7c0.1,0.2,0.2,0.4,0.1,0.6     c-0.1,0.2-0.2,0.2-0.5,0.2h-4.6c-0.4,0-0.7-0.2-0.8-0.5l-2.6-4.6h-16.9l-2.5,4.6c-0.2,0.3-0.4,0.5-0.8,0.5h-4.7     c-0.3,0-0.5-0.1-0.6-0.2c-0.1-0.2,0-0.4,0.1-0.6l11.8-21.7c0.6-1.1,1.2-1.8,1.8-2.2c0.6-0.4,1.2-0.6,2-0.6H486.3z M479.3,552.5     h12.4L486,542c-0.1-0.2-0.2-0.3-0.4-0.3h-0.2c-0.2,0-0.3,0.1-0.4,0.3L479.3,552.5z"/>
			<path class="st0" d="M540.3,536.6c2.8,0,4.7,0.6,5.9,1.9c1.2,1.2,1.8,3.1,1.8,5.5v2.1c0,2.1-0.4,3.7-1.3,4.9     c-0.8,1.2-2.2,2-4.1,2.3l6.2,7.6c0.1,0.1,0.2,0.3,0.1,0.5c0,0.2-0.2,0.4-0.6,0.4h-4.6c-0.3,0-0.5,0-0.6-0.1     c-0.1-0.1-0.2-0.2-0.4-0.4l-5.7-7.5h-11.6v7.2c0,0.5-0.3,0.8-0.8,0.8h-3.9c-0.6,0-0.8-0.3-0.8-0.8v-23.3c0-0.7,0.4-1.1,1.1-1.1     H540.3z M525.4,549.5h13.8c1.2,0,2.1-0.3,2.6-0.8c0.5-0.5,0.8-1.3,0.8-2.4v-1.5c0-1.1-0.3-1.9-0.8-2.4c-0.5-0.5-1.4-0.8-2.6-0.8     h-13.3c-0.3,0-0.5,0.1-0.5,0.4V549.5z"/>
			<path class="st0" d="M571.6,536.6c0.5,0,0.8,0.3,0.8,0.8v9.6h5.1c0.6,0,1.1,0,1.4-0.1s0.7-0.1,1-0.2c0.3-0.1,0.6-0.3,0.8-0.5     c0.2-0.2,0.5-0.5,0.8-0.8l6.2-8.3c0.1-0.2,0.2-0.3,0.4-0.4c0.1-0.1,0.3-0.1,0.7-0.1h4.5c0.3,0,0.5,0.1,0.6,0.3     c0.1,0.2,0,0.4-0.1,0.6l-7,9c-0.4,0.6-0.8,1-1.1,1.4c-0.3,0.4-0.7,0.7-1,1c0.9,0.6,1.8,1.4,2.7,2.6l7.4,9.4     c0.1,0.1,0.1,0.3,0.1,0.6c0,0.3-0.2,0.4-0.6,0.4h-4.6c-0.3,0-0.5,0-0.6-0.1c-0.1-0.1-0.2-0.2-0.4-0.4l-6.6-8.6     c-0.5-0.6-1-1.1-1.5-1.3s-1.4-0.3-2.5-0.3h-5.5v9.9c0,0.5-0.3,0.8-0.8,0.8h-3.9c-0.6,0-0.8-0.3-0.8-0.8v-23.6     c0-0.5,0.3-0.8,0.8-0.8H571.6z"/>
			<path class="st0" d="M636.6,536.6c0.6,0,0.8,0.3,0.8,0.8v3.4c0,0.5-0.3,0.8-0.8,0.8h-15.7c-0.9,0-1.7,0.1-2.3,0.2     c-0.6,0.2-1.1,0.4-1.5,0.8c-0.4,0.4-0.6,0.9-0.8,1.5c-0.1,0.6-0.2,1.4-0.2,2.4v0.4h20.4c0.5,0,0.8,0.3,0.8,0.8v2.8     c0,0.5-0.3,0.8-0.8,0.8h-20.4v0.6c0,0.9,0.1,1.7,0.2,2.4c0.1,0.6,0.4,1.1,0.8,1.5c0.4,0.4,0.9,0.6,1.5,0.8     c0.6,0.2,1.4,0.2,2.3,0.2h15.7c0.6,0,0.8,0.3,0.8,0.8v3.4c0,0.5-0.3,0.8-0.8,0.8h-15.9c-1.8,0-3.4-0.2-4.6-0.5     c-1.3-0.3-2.3-0.9-3.1-1.6c-0.8-0.8-1.4-1.7-1.8-3c-0.4-1.2-0.6-2.7-0.6-4.4v-6.2c0-1.7,0.2-3.2,0.6-4.4c0.4-1.2,1-2.2,1.8-2.9     s1.8-1.3,3.1-1.7c1.3-0.3,2.8-0.5,4.6-0.5H636.6z"/>
			<path class="st0" d="M683.4,536.6c0.6,0,0.8,0.3,0.8,0.8v3.5c0,0.6-0.3,0.8-0.8,0.8h-11.3V561c0,0.5-0.3,0.8-0.8,0.8h-3.9     c-0.5,0-0.8-0.3-0.8-0.8v-19.3h-11.3c-0.6,0-0.8-0.3-0.8-0.8v-3.5c0-0.5,0.3-0.8,0.8-0.8H683.4z"/>
			<path class="st0" d="M706.6,536.6c0.5,0,0.8,0.3,0.8,0.8V561c0,0.5-0.3,0.8-0.8,0.8h-3.9c-0.6,0-0.8-0.3-0.8-0.8v-23.6     c0-0.5,0.3-0.8,0.8-0.8H706.6z"/>
			<path class="st0" d="M733,536.6c0.6,0,1.1,0,1.4,0.1c0.4,0,0.7,0.2,1,0.3c0.3,0.2,0.6,0.4,0.8,0.6c0.3,0.3,0.6,0.6,0.9,1.1     l13.4,17.6c0.1,0.2,0.3,0.3,0.5,0.3h0.3c0.2,0,0.3-0.1,0.3-0.4v-18.8c0-0.5,0.3-0.8,0.8-0.8h3.8c0.5,0,0.8,0.3,0.8,0.8v20.7     c0,1.5-0.3,2.5-0.8,3c-0.5,0.5-1.3,0.8-2.4,0.8h-3.1c-0.6,0-1,0-1.4-0.1c-0.4,0-0.7-0.1-1-0.3c-0.3-0.1-0.6-0.4-0.8-0.6     c-0.3-0.3-0.6-0.7-1-1.1l-13.4-17.6c-0.1-0.2-0.3-0.3-0.5-0.3h-0.3c-0.2,0-0.3,0.1-0.3,0.4V561c0,0.5-0.3,0.8-0.8,0.8h-3.8     c-0.6,0-0.8-0.3-0.8-0.8v-20.7c0-1.5,0.3-2.5,0.8-3c0.5-0.5,1.3-0.8,2.5-0.8H733z"/>
			<path class="st0" d="M804.3,536.6c0.5,0,0.8,0.3,0.8,0.8v3.5c0,0.6-0.3,0.8-0.8,0.8h-18.1c-0.9,0-1.7,0.1-2.3,0.2     s-1.1,0.4-1.5,0.8c-0.4,0.4-0.6,0.9-0.8,1.5c-0.2,0.6-0.2,1.4-0.2,2.4v5.2c0,1,0.1,1.8,0.2,2.4c0.2,0.6,0.4,1.1,0.8,1.5     c0.4,0.4,0.8,0.6,1.5,0.8c0.6,0.2,1.4,0.2,2.3,0.2h11.9c0.6,0,1.1-0.2,1.4-0.5c0.3-0.3,0.4-0.9,0.4-1.7v-2.9     c0-0.3-0.1-0.5-0.4-0.5H789c-0.5,0-0.8-0.3-0.8-0.8v-2.7c0-0.6,0.3-0.8,0.8-0.8h15c0.7,0,1.1,0.4,1.1,1.1v8.4     c0,2-0.4,3.4-1.2,4.3c-0.8,0.8-1.9,1.2-3.3,1.2H786c-1.8,0-3.4-0.2-4.6-0.5c-1.3-0.3-2.3-0.9-3.1-1.6c-0.8-0.8-1.4-1.7-1.8-3     c-0.4-1.2-0.6-2.7-0.6-4.4v-6.2c0-1.7,0.2-3.2,0.6-4.4c0.4-1.2,1-2.2,1.8-2.9c0.8-0.8,1.8-1.3,3.1-1.7c1.3-0.3,2.8-0.5,4.6-0.5     H804.3z"/>
		</g>
	</g>
	<g>
		<path class="st0" d="M477.8,449.5c7.3,0,12.6,1.5,15.7,4.4c3.1,2.9,4.7,7.4,4.7,13.3v5.1c0,6-2.3,10.5-6.9,13.6    c4.9,2.9,7.4,7.5,7.4,13.8v6.2c0,2.9-0.3,5.4-1,7.7c-0.6,2.3-1.7,4.2-3.2,5.8c-1.5,1.6-3.4,2.8-5.8,3.7c-2.4,0.9-5.4,1.3-9,1.3    h-63.6c-2.1,0-3.2-1.1-3.2-3.2v-68.5c0-2.1,1.1-3.2,3.2-3.2H477.8z M429.3,480.6h43.9c3.6,0,6-0.5,7.3-1.6    c1.3-1.1,1.9-2.6,1.9-4.7v-3.6c0-2.2-0.6-3.8-1.9-4.9c-1.2-1-3.3-1.6-6-1.6h-43.8c-0.9,0-1.4,0.5-1.4,1.4V480.6z M429.3,492.3    v15.9c0,0.9,0.5,1.4,1.4,1.4h43.9c2.9,0,4.9-0.5,6.1-1.6c1.2-1,1.8-2.7,1.8-5V499c0-2.2-0.7-3.9-2-5c-1.3-1.1-3.8-1.7-7.3-1.7    H429.3z"/>
		<path class="st0" d="M573.5,449.5c5.4,0,10,0.5,13.9,1.6c3.8,1,6.9,2.7,9.3,4.9c2.4,2.2,4.1,5.2,5.2,8.7c1.1,3.6,1.6,7.9,1.6,13.1    v18.4c0,5.1-0.5,9.5-1.6,13.1c-1.1,3.6-2.8,6.5-5.2,8.8c-2.4,2.2-5.5,3.9-9.3,4.9c-3.8,1-8.4,1.5-13.9,1.5h-33.1    c-5.4,0-10-0.5-13.8-1.5c-3.8-1-6.9-2.6-9.3-4.9c-2.4-2.2-4.1-5.2-5.2-8.8c-1.1-3.6-1.7-8-1.7-13.1v-18.4c0-5.1,0.6-9.5,1.7-13.1    c1.1-3.6,2.9-6.5,5.2-8.7c2.4-2.2,5.5-3.9,9.3-4.9c3.8-1,8.4-1.6,13.8-1.6H573.5z M526.8,495c0,2.8,0.2,5.1,0.7,7    c0.5,1.9,1.2,3.4,2.3,4.5c1.1,1.1,2.5,1.9,4.3,2.4c1.8,0.5,4.1,0.7,6.9,0.7h31.8c2.8,0,5.1-0.2,6.9-0.7c1.8-0.5,3.3-1.2,4.3-2.4    c1.1-1.1,1.8-2.6,2.3-4.5c0.5-1.9,0.7-4.2,0.7-7v-16.1c0-2.8-0.2-5.1-0.7-7c-0.5-1.9-1.2-3.4-2.3-4.5c-1.1-1.1-2.5-1.9-4.3-2.4    c-1.8-0.5-4.1-0.7-6.9-0.7H541c-2.8,0-5.1,0.2-6.9,0.7c-1.8,0.5-3.3,1.2-4.3,2.4c-1.1,1.1-1.8,2.6-2.3,4.5c-0.5,1.9-0.7,4.2-0.7,7    V495z"/>
		<path class="st0" d="M678.9,449.5c5.4,0,10,0.5,13.9,1.6c3.8,1,6.9,2.7,9.3,4.9c2.4,2.2,4.1,5.2,5.2,8.7c1.1,3.6,1.6,7.9,1.6,13.1    v18.4c0,5.1-0.5,9.5-1.6,13.1c-1.1,3.6-2.8,6.5-5.2,8.8c-2.4,2.2-5.5,3.9-9.3,4.9c-3.8,1-8.4,1.5-13.9,1.5h-33.1    c-5.4,0-10-0.5-13.8-1.5c-3.8-1-6.9-2.6-9.3-4.9c-2.4-2.2-4.1-5.2-5.2-8.8c-1.1-3.6-1.7-8-1.7-13.1v-18.4c0-5.1,0.6-9.5,1.7-13.1    c1.1-3.6,2.9-6.5,5.2-8.7c2.4-2.2,5.5-3.9,9.3-4.9c3.8-1,8.4-1.6,13.8-1.6H678.9z M632.2,495c0,2.8,0.2,5.1,0.7,7    c0.5,1.9,1.2,3.4,2.3,4.5c1.1,1.1,2.5,1.9,4.3,2.4c1.8,0.5,4.1,0.7,6.9,0.7h31.8c2.8,0,5.1-0.2,6.9-0.7c1.8-0.5,3.3-1.2,4.3-2.4    c1.1-1.1,1.8-2.6,2.3-4.5c0.5-1.9,0.7-4.2,0.7-7v-16.1c0-2.8-0.2-5.1-0.7-7c-0.5-1.9-1.2-3.4-2.3-4.5c-1.1-1.1-2.5-1.9-4.3-2.4    c-1.8-0.5-4.1-0.7-6.9-0.7h-31.8c-2.8,0-5.1,0.2-6.9,0.7c-1.8,0.5-3.3,1.2-4.3,2.4c-1.1,1.1-1.8,2.6-2.3,4.5    c-0.5,1.9-0.7,4.2-0.7,7V495z"/>
		<path class="st0" d="M736.2,449.5c1.6,0,2.4,0.8,2.4,2.4v28.5h15.1c1.7,0,3.1-0.1,4.3-0.2c1.1-0.1,2.1-0.3,3-0.7    c0.9-0.4,1.6-0.9,2.4-1.5c0.7-0.6,1.5-1.5,2.2-2.5l18.4-24.6c0.4-0.5,0.7-0.9,1.1-1.1c0.4-0.2,1-0.3,2-0.3h13.3    c0.9,0,1.5,0.3,1.7,0.9c0.2,0.6,0.1,1.2-0.3,1.7l-20.8,26.9c-1.2,1.6-2.3,3-3.4,4.2c-1,1.1-2.1,2.1-3.1,3c2.8,1.7,5.5,4.3,8.1,7.7    l21.9,27.8c0.3,0.4,0.4,0.9,0.3,1.7c-0.1,0.7-0.6,1.1-1.7,1.1h-13.7c-0.9,0-1.6-0.1-1.9-0.3c-0.4-0.2-0.7-0.6-1.1-1.1l-19.7-25.5    c-1.4-1.9-3-3.1-4.6-3.8c-1.6-0.7-4.1-1-7.4-1h-16.3V522c0,1.6-0.8,2.4-2.4,2.4h-11.6c-1.6,0-2.5-0.8-2.5-2.4v-70.2    c0-1.6,0.8-2.4,2.5-2.4H736.2z"/>
	</g>
</g>
</svg>